HIERARCHY
ROOT SpineBase
{
  OFFSET 0.000000 0.000000 0.000000
  CHANNELS 6 Xposition Yposition Zposition Zrotation Xrotation Yrotation
  JOINT SpineMid
  {
    OFFSET 0.000000 31.198297 0.000000
    CHANNELS 3 Zrotation Xrotation Yrotation
    JOINT SpineShoulder
    {
      OFFSET -0.178257 23.195526 -0.670240
      CHANNELS 3 Zrotation Xrotation Yrotation
      JOINT Neck
      {
        OFFSET -0.118989 7.657296 -0.513369
        CHANNELS 3 Zrotation Xrotation Yrotation
        JOINT Head
        {
          OFFSET -6.389278 10.551353 4.729188
          CHANNELS 3 Zrotation Xrotation Yrotation
          End Site
          {
            OFFSET 0 0 0
          }
        }
      }
      JOINT ShoulderLeft
      {
        OFFSET -25.592361 -2.874439 28.198845
        CHANNELS 3 Zrotation Xrotation Yrotation
        JOINT ElbowLeft
        {
          OFFSET 6.775068 -26.290152 -5.942214
          CHANNELS 3 Zrotation Xrotation Yrotation
          JOINT WristLeft
          {
            OFFSET -4.241710 -19.429061 7.114665
            CHANNELS 3 Zrotation Xrotation Yrotation
            JOINT HandLeft
            {
              OFFSET -0.162765 -7.145653 0.696933
              CHANNELS 3 Zrotation Xrotation Yrotation
              JOINT HandTipLeft
              {
                OFFSET -4.606991 -8.625530 2.232986
                CHANNELS 3 Zrotation Xrotation Yrotation
                End Site
                {
                  OFFSET 0 0 0
                }
              }
              JOINT ThumbLeft
              {
                OFFSET 6.541776 -1.995367 -2.459507
                CHANNELS 3 Zrotation Xrotation Yrotation
                End Site
                {
                  OFFSET 0 0 0
                }
              }
            }
          }
        }
      }
      JOINT ShoulderRight
      {
        OFFSET 2.558179 -4.940246 -15.416935
        CHANNELS 3 Zrotation Xrotation Yrotation
        JOINT ElbowRight
        {
          OFFSET -0.911876 -24.219559 -7.719738
          CHANNELS 3 Zrotation Xrotation Yrotation
          JOINT WristRight
          {
            OFFSET -7.493210 -23.051896 0.928851
            CHANNELS 3 Zrotation Xrotation Yrotation
            JOINT HandRight
            {
              OFFSET -0.032083 -8.119192 1.889626
              CHANNELS 3 Zrotation Xrotation Yrotation
              JOINT HandTipRight
              {
                OFFSET -2.368144 -5.970331 0.489644
                CHANNELS 3 Zrotation Xrotation Yrotation
                End Site
                {
                  OFFSET 0 0 0
                }
              }
              JOINT ThumbRight
              {
                OFFSET 4.040064 -1.122169 -0.475083
                CHANNELS 3 Zrotation Xrotation Yrotation
                End Site
                {
                  OFFSET 0 0 0
                }
              }
            }
          }
        }
      }
    }
  }
  JOINT HipLeft
  {
    OFFSET -4.601376 0.480350 1.593308
    CHANNELS 3 Zrotation Xrotation Yrotation
    JOINT KneeLeft
    {
      OFFSET 5.229588 -34.969835 11.596371
      CHANNELS 3 Zrotation Xrotation Yrotation
      JOINT AnkleLeft
      {
        OFFSET 11.150958 -37.249526 -3.294162
        CHANNELS 3 Zrotation Xrotation Yrotation
        JOINT FootLeft
        {
          OFFSET -3.913720 -6.545392 -3.940216
          CHANNELS 3 Zrotation Xrotation Yrotation
          End Site
          {
            OFFSET 0 0 0
          }
        }
      }
    }
  }
  JOINT HipRight
  {
    OFFSET 3.087556 1.548872 -8.516050
    CHANNELS 3 Zrotation Xrotation Yrotation
    JOINT KneeRight
    {
      OFFSET 5.034868 -34.465690 -3.984275
      CHANNELS 3 Zrotation Xrotation Yrotation
      JOINT AnkleRight
      {
        OFFSET 6.562697 -37.048739 5.398018
        CHANNELS 3 Zrotation Xrotation Yrotation
        JOINT FootRight
        {
          OFFSET -4.422834 -7.181453 -0.229791
          CHANNELS 3 Zrotation Xrotation Yrotation
          End Site
          {
            OFFSET 0 0 0
          }
        }
      }
    }
  }
}
MOTION
Frames: 5
Frame Time: 0.033333
60.466918 79.649966 296.035577 0.252310 1.279591 51.039403 -0.029030 -0.297867 -51.017769 0.262182 -0.350663 0.042995 -4.952782 -4.681721 -0.804435 0.000000 0.000000 0.000000 -0.728764 -0.718358 -0.064570 7.681492 5.439480 1.304976 5.562525 -9.938249 1.159273 -11.102456 10.082212 -3.541023 0.000000 0.000000 0.000000 0.000000 0.000000 0.000000 -2.944276 -0.909040 0.617219 -0.228529 2.828017 -1.602423 -1.339896 -9.220739 -0.270835 -1.081353 18.421642 -3.336904 0.000000 0.000000 0.000000 0.000000 0.000000 0.000000 0.568685 4.280271 -51.350468 4.152068 -10.411673 -1.392785 -20.554694 6.843789 13.410377 0.000000 0.000000 0.000000 -2.572956 -4.901634 -51.955935 1.684536 3.623129 1.222397 -14.373218 7.106323 -3.577073 0.000000 0.000000 0.000000
59.540923 78.911704 296.351062 0.828587 0.759471 50.265579 0.278473 -0.353281 -50.224459 0.311192 -0.187576 0.077243 -4.233747 -4.416382 -1.436458 0.000000 0.000000 0.000000 -1.590753 -0.557167 -0.123035 11.997080 8.344118 1.795046 -1.037850 -11.261785 -0.461529 -6.783228 13.146244 -5.976059 0.000000 0.000000 0.000000 0.000000 0.000000 0.000000 -3.409319 -0.774388 0.443673 -0.456523 2.894556 -1.484815 0.128763 -10.620063 0.249244 -2.956177 22.039901 -4.284786 0.000000 0.000000 0.000000 0.000000 0.000000 0.000000 0.834296 6.327176 -50.738061 0.793645 -14.606152 -2.499418 -23.150317 12.456649 17.542182 0.000000 0.000000 0.000000 -0.700054 -4.749623 -51.129041 0.033910 2.290551 1.294566 -16.247337 7.588316 -3.301166 0.000000 0.000000 0.000000
58.243495 78.551513 296.408142 1.738374 0.857452 48.534929 0.310048 -0.372959 -48.472351 0.246869 -0.155950 0.110771 -4.680066 -4.444526 -1.629180 0.000000 0.000000 0.000000 -2.472342 -0.679469 -0.190988 16.051980 11.033852 2.076962 -8.244776 -15.275776 -2.308300 1.274167 23.500218 -11.653007 0.000000 0.000000 0.000000 0.000000 0.000000 0.000000 -3.437011 -0.627417 0.103557 -0.271116 2.767125 -1.238842 0.089339 -12.094659 0.565006 -4.394902 25.143158 -4.870150 0.000000 0.000000 0.000000 0.000000 0.000000 0.000000 -0.792898 7.583641 -49.319054 -4.286802 -17.243568 -3.747417 -21.065064 14.185204 21.280327 0.000000 0.000000 0.000000 -0.076275 -4.701230 -49.414072 -0.641439 1.712296 1.441514 -17.090182 7.897390 -3.401678 0.000000 0.000000 0.000000
56.522742 78.070455 296.681855 2.636963 0.809552 46.423201 0.420025 -0.156038 -46.347360 0.287355 -0.031146 0.146130 -6.268203 -5.021087 -1.622269 0.000000 0.000000 0.000000 -3.331057 -0.961604 -0.266262 19.421815 13.232127 2.178329 -15.937292 -20.999103 -4.613214 22.236222 42.968590 -30.692982 0.000000 0.000000 0.000000 0.000000 0.000000 0.000000 -3.331057 -0.961604 -0.266262 0.165905 2.775088 -0.900860 -0.882130 -12.711180 0.623878 -3.886899 26.528781 -5.385826 0.000000 0.000000 0.000000 0.000000 0.000000 0.000000 -2.251632 9.023936 -47.452877 -9.118042 -17.870283 -4.336246 -20.490848 9.297714 26.221489 0.000000 0.000000 0.000000 1.005304 -4.365258 -47.284102 -0.919528 0.960617 1.643961 -17.074320 8.110178 -3.809361 0.000000 0.000000 0.000000
54.490753 77.395161 297.428298 3.432637 0.498648 44.739201 0.375207 0.144252 -44.654247 0.275052 0.128566 0.162266 -5.666870 -4.361774 -1.686106 0.000000 0.000000 0.000000 -3.877259 -0.975570 -0.308210 21.885891 14.778748 2.191722 -24.793592 -27.889165 -7.922203 77.618344 53.265252 -85.076000 0.000000 0.000000 0.000000 0.000000 0.000000 0.000000 -2.704456 0.216247 -0.716139 -0.059991 1.828576 -0.545557 -1.234440 -13.935080 0.856206 -4.357595 26.505430 -5.056424 0.000000 0.000000 0.000000 0.000000 0.000000 0.000000 -3.346322 10.730378 -45.965400 -13.478797 -19.441631 -5.416420 -17.319562 12.919460 26.721379 0.000000 0.000000 0.000000 3.171161 -3.836581 -45.572031 -1.801990 -0.244751 1.884196 -14.916447 7.954931 -4.474850 0.000000 0.000000 0.000000
